<?xml version="1.0" standalone="no"?>
<!DOCTYPE svg PUBLIC "-//W3C//DTD SVG 20010904//EN"
 "http://www.w3.org/TR/2001/REC-SVG-20010904/DTD/svg10.dtd">
<svg version="1.0" xmlns="http://www.w3.org/2000/svg"
 width="1618.000000pt" height="1229.000000pt" viewBox="0 0 1618.000000 1229.000000"
 preserveAspectRatio="xMidYMid meet">
<metadata>
Created by potrace 1.16, written by Peter Selinger 2001-2019
</metadata>
<g transform="translate(0.000000,1229.000000) scale(0.100000,-0.100000)"
fill="#000000" stroke="none">
<path d="M7755 11871 c-11 -5 -29 -19 -41 -32 -12 -13 -848 -1288 -1859 -2834
-2001 -3059 -2463 -3764 -4273 -6530 -662 -1012 -1208 -1850 -1213 -1863 -12
-32 -2 -65 28 -94 l25 -23 7580 0 7580 0 24 28 c37 44 32 83 -23 163 -26 38
-204 296 -397 574 -192 278 -906 1308 -1586 2290 -680 982 -1774 2561 -2432
3510 -657 949 -1668 2409 -2247 3245 -579 836 -1062 1530 -1074 1542 -26 26
-64 36 -92 24z m557 -1009 c512 -741 863 -1247 3104 -4482 638 -921 1662
-2399 2276 -3285 613 -885 1240 -1790 1392 -2010 l277 -400 -3679 -3 c-2024
-1 -5339 -1 -7366 0 l-3686 3 462 705 c253 388 814 1245 1246 1905 432 660
1825 2789 3095 4730 2486 3799 2345 3585 2355 3585 4 0 240 -337 524 -748z"/>
<path d="M4524 5170 c-27 -11 -68 -66 -83 -111 -17 -53 -17 -98 -2 -699 15
-604 10 -1114 -13 -1345 -9 -97 -17 -326 -21 -645 -8 -526 0 -706 31 -759 48
-82 171 -81 215 1 8 14 12 141 14 382 3 383 19 885 31 930 l6 27 42 -43 c59
-62 96 -88 236 -166 212 -119 455 -274 598 -383 34 -27 129 -81 210 -121 139
-69 153 -78 257 -178 122 -117 177 -150 248 -150 40 0 53 5 85 34 35 33 37 38
37 96 0 60 -1 62 -43 98 -24 20 -88 80 -141 134 -113 111 -160 143 -331 226
-69 33 -143 75 -165 94 -112 95 -384 273 -584 384 -131 71 -155 89 -247 181
l-102 102 52 86 c69 115 106 151 216 210 124 67 171 105 232 189 85 118 188
225 266 278 105 71 147 111 210 203 31 44 109 132 173 195 127 124 153 164
163 253 7 55 6 58 -24 88 -36 37 -66 35 -136 -6 -86 -50 -303 -252 -422 -393
-30 -35 -88 -85 -130 -114 -91 -60 -249 -218 -311 -309 -46 -69 -56 -77 -190
-155 -46 -27 -100 -64 -121 -81 -21 -18 -41 -33 -44 -33 -3 0 -6 66 -6 148 1
274 -21 1086 -30 1166 -17 141 -92 220 -176 186z"/>
<path d="M8908 4477 c-15 -12 -36 -40 -45 -62 -17 -37 -18 -84 -15 -640 3
-766 -11 -1479 -34 -1590 -28 -145 -28 -166 -2 -204 12 -19 34 -42 48 -52 34
-25 402 -105 595 -129 50 -6 189 -31 310 -56 284 -56 433 -74 625 -74 136 0
159 2 187 20 61 37 81 116 43 177 -38 62 -54 67 -269 75 -207 7 -330 22 -501
61 -58 13 -166 34 -240 46 -270 44 -511 89 -529 100 -8 5 -7 50 3 152 27 266
40 943 26 1329 -7 190 -15 444 -19 565 -5 192 -8 224 -25 252 -34 56 -109 71
-158 30z"/>
<path d="M7248 2291 c-93 -59 -134 -194 -90 -294 65 -146 300 -140 373 9 17
37 20 58 18 123 -4 67 -8 83 -33 115 -60 79 -183 101 -268 47z"/>
<path d="M11566 1959 c-56 -38 -80 -78 -80 -139 0 -56 25 -105 67 -131 47 -29
143 -22 192 15 175 134 5 376 -179 255z"/>
</g>
</svg>
